<?xml version="1.0" encoding="UTF-8"?>
<svg width="50px" height="42px" viewBox="0 0 50 42" version="1.1" xmlns="http://www.w3.org/2000/svg" xmlns:xlink="http://www.w3.org/1999/xlink">
    <!-- Generator: Sketch 49.3 (51167) - http://www.bohemiancoding.com/sketch -->
    <title>today_icon</title>
    <desc>Created with Sketch.</desc>
    <defs></defs>
    <g id="Page-1" stroke="none" stroke-width="1" fill="none" fill-rule="evenodd">
        <g id="noun_304935_cc" fill="#000000">
            <path d="M41.7,30.3 C41.2,30 40.6,30.2 40.3,30.7 C37.1,36.2 31.2,39.6 24.9,39.6 C15.1,39.6 7.2,31.7 7.2,21.9 L10.1,24.8 C10.3,25 10.6,25.1 10.8,25.1 C11,25.1 11.3,25 11.5,24.8 C11.9,24.4 11.9,23.8 11.5,23.4 L7,18.8 C6.6,18.4 6,18.4 5.6,18.8 L1.1,23.3 C0.7,23.7 0.7,24.3 1.1,24.7 C1.5,25.1 2.1,25.1 2.5,24.7 L5.2,22 C5.3,32.8 14.1,41.5 24.9,41.5 C31.9,41.5 38.5,37.7 42,31.6 C42.4,31.1 42.2,30.5 41.7,30.3 Z" id="Shape" fill-rule="nonzero"></path>
            <path d="M48.9,17.3 C48.5,16.9 47.9,16.9 47.5,17.3 L44.7,20 C44.6,9.2 35.8,0.5 25,0.5 C18,0.5 11.4,4.3 7.9,10.4 C7.6,10.9 7.8,11.5 8.3,11.8 C8.8,12.1 9.4,11.9 9.7,11.4 C12.9,5.9 18.8,2.5 25.1,2.5 C34.9,2.5 42.8,10.4 42.8,20.2 L39.9,17.3 C39.5,16.9 38.9,16.9 38.5,17.3 C38.1,17.7 38.1,18.3 38.5,18.7 L43.1,23.3 C43.3,23.5 43.6,23.6 43.8,23.6 C44,23.6 44.3,23.5 44.5,23.3 L49,18.8 C49.3,18.3 49.3,17.7 48.9,17.3 Z" id="Shape" fill-rule="nonzero"></path>
            <path d="M26,14 L26,31 C26,31.5522847 25.5522847,32 25,32 C24.4477153,32 24,31.5522847 24,31 L24,14 L18,14 C17.4477153,14 17,13.5522847 17,13 C17,12.4477153 17.4477153,12 18,12 L32,12 C32.5522847,12 33,12.4477153 33,13 C33,13.5522847 32.5522847,14 32,14 L26,14 Z" id="Rectangle"></path>
        </g>
    </g>
</svg>